<svg width="60" height="60" viewBox="0 0 60 60" fill={fill} xmlns="http://www.w3.org/2000/svg">
<path fill-rule="evenodd" clip-rule="evenodd" d="M30.0001 0.666656C13.8001 0.666656 0.666748 13.8 0.666748 30C0.666748 46.2 13.8001 59.3333 30.0001 59.3333C46.2001 59.3333 59.3334 46.2 59.3334 30C59.3334 13.8 46.2001 0.666656 30.0001 0.666656ZM42.7147 25.04C42.9489 24.7724 43.1271 24.4606 43.239 24.1231C43.3508 23.7856 43.3941 23.4291 43.3661 23.0746C43.3382 22.7201 43.2396 22.3748 43.0763 22.059C42.9129 21.7432 42.688 21.4632 42.4149 21.2356C42.1417 21.0079 41.8258 20.8372 41.4857 20.7335C41.1456 20.6298 40.7881 20.5951 40.4344 20.6315C40.0807 20.668 39.7379 20.7748 39.4261 20.9457C39.1143 21.1166 38.8398 21.3481 38.6187 21.6267L27.1521 35.384L21.2187 29.448C20.7158 28.9622 20.0422 28.6934 19.343 28.6995C18.6438 28.7056 17.975 28.986 17.4806 29.4805C16.9861 29.9749 16.7057 30.6437 16.6996 31.3429C16.6935 32.0421 16.9623 32.7157 17.4481 33.2187L25.4481 41.2187C25.7101 41.4805 26.0238 41.6849 26.3692 41.8188C26.7146 41.9527 27.0841 42.0132 27.4541 41.9964C27.8242 41.9796 28.1867 41.8858 28.5185 41.7212C28.8503 41.5565 29.1442 41.3245 29.3814 41.04L42.7147 25.04Z" fill="black"/>
</svg>
