<svg width="64" height="64" viewBox="0 0 64 64" fill="black" xmlns="http://www.w3.org/2000/svg">
<path d="M7.5021 41.2444L4.12432 55.8222C4.0078 56.3551 4.0118 56.9073 4.13601 57.4385C4.26023 57.9696 4.50154 58.4663 4.8423 58.8923C5.18307 59.3182 5.61468 59.6627 6.10561 59.9005C6.59655 60.1383 7.1344 60.2634 7.67988 60.2667C7.93405 60.2923 8.19015 60.2923 8.44432 60.2667L23.111 56.8889L51.271 28.8355L35.5554 13.1555L7.5021 41.2444Z" fill={fill}/>
<path d="M60.1244 14.7911L49.6355 4.30222C48.9459 3.61612 48.0127 3.23096 47.0399 3.23096C46.0672 3.23096 45.134 3.61612 44.4444 4.30222L38.6133 10.1333L54.3111 25.8311L60.1422 20C60.4834 19.657 60.7537 19.2501 60.9375 18.8026C61.1213 18.3551 61.2151 17.8757 61.2134 17.3919C61.2118 16.9081 61.1147 16.4293 60.9279 15.9831C60.741 15.5368 60.468 15.1317 60.1244 14.7911V14.7911Z" fill={fill}/>
</svg>
