<svg width="64" height="64" viewBox="0 0 64 64" fill="black" xmlns="http://www.w3.org/2000/svg">
<path fill-rule="evenodd" clip-rule="evenodd" d="M32.0001 2.66667C15.8001 2.66667 2.66675 15.8 2.66675 32C2.66675 48.2 15.8001 61.3333 32.0001 61.3333C48.2001 61.3333 61.3334 48.2 61.3334 32C61.3334 15.8 48.2001 2.66667 32.0001 2.66667ZM41.8854 25.8853C42.3712 25.3824 42.64 24.7088 42.6339 24.0096C42.6278 23.3104 42.3473 22.6416 41.8529 22.1472C41.3585 21.6527 40.6897 21.3723 39.9905 21.3662C39.2913 21.3601 38.6177 21.6289 38.1147 22.1147L32.0001 28.2293L25.8854 22.1147C25.6394 21.86 25.3452 21.6568 25.0198 21.5171C24.6945 21.3773 24.3446 21.3037 23.9905 21.3007C23.6364 21.2976 23.2853 21.3651 22.9575 21.4991C22.6298 21.6332 22.3321 21.8312 22.0817 22.0816C21.8313 22.332 21.6333 22.6297 21.4992 22.9575C21.3651 23.2852 21.2977 23.6363 21.3007 23.9904C21.3038 24.3445 21.3774 24.6944 21.5171 25.0197C21.6569 25.3451 21.8601 25.6393 22.1147 25.8853L28.2294 32L22.1147 38.1147C21.8601 38.3607 21.6569 38.6549 21.5171 38.9803C21.3774 39.3056 21.3038 39.6555 21.3007 40.0096C21.2977 40.3637 21.3651 40.7148 21.4992 41.0425C21.6333 41.3703 21.8313 41.668 22.0817 41.9184C22.3321 42.1688 22.6298 42.3668 22.9575 42.5009C23.2853 42.6349 23.6364 42.7024 23.9905 42.6993C24.3446 42.6963 24.6945 42.6227 25.0198 42.4829C25.3452 42.3432 25.6394 42.14 25.8854 41.8853L32.0001 35.7707L38.1147 41.8853C38.6177 42.3711 39.2913 42.6399 39.9905 42.6338C40.6897 42.6277 41.3585 42.3473 41.8529 41.8529C42.3473 41.3584 42.6278 40.6896 42.6339 39.9904C42.64 39.2912 42.3712 38.6176 41.8854 38.1147L35.7707 32L41.8854 25.8853Z" fill={fill}/>
</svg>
