<svg width="16" height="16" viewBox="0 0 16 16" fill="black" xmlns="http://www.w3.org/2000/svg">
<path d="M8 2C7.21207 2 6.43185 2.15519 5.7039 2.45672C4.97595 2.75825 4.31451 3.20021 3.75736 3.75736C3.20021 4.31451 2.75825 4.97595 2.45672 5.7039C2.15519 6.43185 2 7.21207 2 8C2 8.78793 2.15519 9.56815 2.45672 10.2961C2.75825 11.0241 3.20021 11.6855 3.75736 12.2426C4.31451 12.7998 4.97595 13.2417 5.7039 13.5433C6.43185 13.8448 7.21207 14 8 14C9.5913 14 11.1174 13.3679 12.2426 12.2426C13.3679 11.1174 14 9.5913 14 8C14 6.4087 13.3679 4.88258 12.2426 3.75736C11.1174 2.63214 9.5913 2 8 2V2ZM8.75 5.5C8.75 5.69878 8.67104 5.88942 8.53048 6.02998C8.38992 6.17053 8.19928 6.2495 8.0005 6.2495C7.80172 6.2495 7.61108 6.17053 7.47052 6.02998C7.32996 5.88942 7.251 5.69878 7.251 5.5C7.251 5.30135 7.32991 5.11084 7.47038 4.97038C7.61084 4.82991 7.80135 4.751 8 4.751C8.19865 4.751 8.38916 4.82991 8.52962 4.97038C8.67009 5.11084 8.749 5.30135 8.749 5.5H8.75ZM8 7C8.13261 7 8.25979 7.05268 8.35355 7.14645C8.44732 7.24021 8.5 7.36739 8.5 7.5V10.5C8.5 10.6326 8.44732 10.7598 8.35355 10.8536C8.25979 10.9473 8.13261 11 8 11C7.86739 11 7.74021 10.9473 7.64645 10.8536C7.55268 10.7598 7.5 10.6326 7.5 10.5V7.5C7.5 7.36739 7.55268 7.24021 7.64645 7.14645C7.74021 7.05268 7.86739 7 8 7V7Z" fill={fill}/>
</svg>
