<svg width="64" height="64" viewBox="0 0 64 64" fill={fill} xmlns="http://www.w3.org/2000/svg">
<path d="M32 4C16.5375 4 4 16.5375 4 32C4 47.4625 16.5375 60 32 60C47.4625 60 60 47.4625 60 32C60 16.5375 47.4625 4 32 4ZM44 33.5C44 33.775 43.775 34 43.5 34H34V43.5C34 43.775 33.775 44 33.5 44H30.5C30.225 44 30 43.775 30 43.5V34H20.5C20.225 34 20 33.775 20 33.5V30.5C20 30.225 20.225 30 20.5 30H30V20.5C30 20.225 30.225 20 30.5 20H33.5C33.775 20 34 20.225 34 20.5V30H43.5C43.775 30 44 30.225 44 30.5V33.5Z" fill="black"/>
</svg>
