<svg width="156" height="143" viewBox="0 0 156 143" fill="none" xmlns="http://www.w3.org/2000/svg">
	<path
		d="M114.869 10.963a4.613 4.613 0 0 0-1.198-3.12 507.185 507.185 0 0 0-1.911-2.075c1.544-.98 2.722-2.504 3.096-4.388.142-.71-.401-1.38-1.107-1.38H97.001c-9.867 0-17.867 8.202-17.867 18.319H56.812c-4.026 0-7.594 1.857-10.05 4.738v-.159c-6.775 0-12.284 5.65-12.284 12.594v8.015c0 1.265 1 2.29 2.233 2.29h2.234c1.233 0 2.233-1.025 2.233-2.29v-8.015c0-1.892.959-3.49 2.342-4.533-.03.369-.109.722-.109 1.099a13.82 13.82 0 0 0 4.263 10l-3.59 9.818a9.371 9.371 0 0 0-.301 5.437L47.25 71.54c.12.495.4.935.791 1.25.393.314.876.485 1.374.485h9.208c1.453 0 2.519-1.4 2.166-2.845l-3.673-15.065 3.328-9.1 18.7 3.195v21.525c0 1.265 1 2.29 2.234 2.29h8.933c1.234 0 2.234-1.025 2.234-2.29V45.542a16.173 16.173 0 0 0 4.467-11.195c0-.031-.01-.06-.012-.091V19.59l2.234 1.017 2.638 5.396c1.04 2.128 3.497 3.084 5.652 2.2l4.543-1.864a4.491 4.491 0 0 0 2.042-1.686 4.657 4.657 0 0 0 .767-2.57l-.008-11.121Zm-8.934 2.776c-1.234 0-2.233-1.025-2.233-2.29 0-1.265.999-2.29 2.233-2.29s2.233 1.025 2.233 2.29c0 1.265-.999 2.29-2.233 2.29ZM141.68 97.175h-15.953L111.056 70.85a2.264 2.264 0 0 0-.818-.844 2.195 2.195 0 0 0-1.122-.31h-9.143c-1.484 0-2.554 1.456-2.147 2.919l6.844 24.56H90.312l-6.03-8.243a2.216 2.216 0 0 0-1.786-.916h-5.582c-1.454 0-2.52 1.4-2.167 2.845l4.398 15.473-4.398 15.474c-.353 1.445.713 2.845 2.166 2.845h5.583c.703 0 1.365-.339 1.786-.916l6.03-8.243h14.358l-6.844 24.558c-.407 1.463.663 2.92 2.147 2.92h9.143c.801 0 1.541-.441 1.939-1.154l14.672-26.324h15.953c4.935 0 13.401-4.101 13.401-9.16s-8.466-9.16-13.401-9.16Z"
		fill="#fff" />
	<ellipse cx="34.408" cy="106.406" rx="34.408" ry="35.278" fill="#fff" />
	<ellipse cx="34.408" cy="106.406" rx="26.172" ry="26.834" fill="#1A7B88" />
	<ellipse cx="34.339" cy="106.477" rx="18.286" ry="18.748" fill="#fff" />
	<ellipse cx="34.338" cy="106.477" rx="9.073" ry="9.302" fill="#1A7B88" />
	<path fill="#1A7B88" d="M36.712 126.513h-4.886V87.729h4.886z" />
	<path fill="#1A7B88" d="m17.211 99.13 2.443-4.338 32.61 19.303-2.443 4.338z" />
	<path fill="#1A7B88" d="m48.883 94.791 2.443 4.338-31.672 18.748-2.443-4.338z" />
	<ellipse cx="34.338" cy="106.477" rx="4.188" ry="4.293" fill="#fff" />
</svg>