<svg width="64" height="64" viewBox="0 0 64 64" fill={fill} xmlns="http://www.w3.org/2000/svg">
<path fill-rule="evenodd" clip-rule="evenodd" d="M32 0C26.721 0.0165541 21.6219 1.92054 17.624 5.368C14.56 8.008 12.34 11.448 11.768 14.9C5.064 16.38 0 22.22 0 29.272C0 37.464 6.832 44 15.124 44H30V22.828L21.416 31.416C21.0405 31.7915 20.5311 32.0025 20 32.0025C19.4689 32.0025 18.9595 31.7915 18.584 31.416C18.2085 31.0405 17.9975 30.5311 17.9975 30C17.9975 29.4689 18.2085 28.9595 18.584 28.584L30.584 16.584C30.7698 16.3977 30.9905 16.25 31.2335 16.1491C31.4764 16.0483 31.7369 15.9964 32 15.9964C32.2631 15.9964 32.5236 16.0483 32.7665 16.1491C33.0095 16.25 33.2302 16.3977 33.416 16.584L45.416 28.584C45.7915 28.9595 46.0025 29.4689 46.0025 30C46.0025 30.5311 45.7915 31.0405 45.416 31.416C45.0405 31.7915 44.5311 32.0025 44 32.0025C43.4689 32.0025 42.9595 31.7915 42.584 31.416L34 22.828V44H50.752C58.008 44 64 38.28 64 31.092C64 24.548 59.032 19.216 52.664 18.316C51.692 7.996 42.76 0 32 0ZM30 58V44H34V58C34 58.5304 33.7893 59.0391 33.4142 59.4142C33.0391 59.7893 32.5304 60 32 60C31.4696 60 30.9609 59.7893 30.5858 59.4142C30.2107 59.0391 30 58.5304 30 58Z" fill="black"/>
</svg>
