<svg width="69" height="71" viewBox="0 0 69 71" fill="black" xmlns="http://www.w3.org/2000/svg">
<path fill-rule="evenodd" clip-rule="evenodd" d="M34.41 70.5593C53.4141 70.5593 68.82 54.7641 68.82 35.2797C68.82 15.7952 53.4141 0 34.41 0C15.4059 0 0 15.7952 0 35.2797C0 54.7641 15.4059 70.5593 34.41 70.5593ZM34.2774 62.0858C48.7329 62.0858 60.4514 50.0711 60.4514 35.2503C60.4514 20.4295 48.7329 8.41487 34.2774 8.41487C19.822 8.41487 8.10349 20.4295 8.10349 35.2503C8.10349 50.0711 19.822 62.0858 34.2774 62.0858ZM48.9588 46.3143C46.031 50.424 41.5117 53.2664 36.3305 53.8881L36.3305 43.6253C37.8794 43.1961 39.2641 42.357 40.367 41.2284L48.9588 46.3143ZM52.4687 35.2671C52.4687 37.6058 52.0511 39.8444 51.2881 41.9089L42.7703 36.8668C42.9406 36.1545 43.0309 35.4099 43.0309 34.6438C43.0309 33.788 42.9182 32.9592 42.7072 32.1721L50.7823 27.3922C51.8647 29.7865 52.4687 32.4545 52.4687 35.2671ZM36.3305 16.6461C41.0561 17.2132 45.2311 19.6275 48.1502 23.166L40.1869 27.8798C39.1149 26.8416 37.7962 26.0684 36.3305 25.6623V16.6461ZM31.4447 43.5854L31.4447 53.8075C25.1137 52.8333 19.8448 48.5315 17.386 42.6944L19.2723 46.0442L27.4967 41.1759C28.5748 42.2967 29.9283 43.1383 31.4447 43.5854ZM25.1273 36.7942L16.972 41.6216C16.2749 39.6373 15.895 37.4977 15.895 35.2671C15.895 32.5622 16.4537 29.991 17.4592 27.6683L25.1885 32.2436C24.9897 33.0093 24.8837 33.8139 24.8837 34.6438C24.8837 35.384 24.968 36.1039 25.1273 36.7942ZM27.675 27.9312L20.0224 23.4013C22.8295 19.8844 26.8584 17.4324 31.4447 16.7267V25.7021C30.0108 26.1249 28.7225 26.9005 27.675 27.9312ZM34.1074 38.8185C36.4202 38.8185 38.2952 36.8962 38.2952 34.5249C38.2952 32.1535 36.4202 30.2312 34.1074 30.2312C31.7945 30.2312 29.9195 32.1535 29.9195 34.5249C29.9195 36.8962 31.7945 38.8185 34.1074 38.8185Z" fill={fill} />
</svg>
